<?xml version="1.0" encoding="utf-8"?>
<!-- Generator: Adobe Illustrator 24.3.0, SVG Export Plug-In . SVG Version: 6.00 Build 0)  -->
<svg version="1.1" id="Layer_1" xmlns="http://www.w3.org/2000/svg" xmlns:xlink="http://www.w3.org/1999/xlink" x="0px" y="0px"
	 viewBox="0 0 841.89 595.28" style="enable-background:new 0 0 841.89 595.28;" xml:space="preserve">
<style type="text/css">
	.st0{fill:url(#SVGID_1_);}
	.st1{fill:url(#SVGID_2_);}
	.st2{fill:url(#SVGID_3_);}
	.st3{fill:url(#SVGID_4_);}
	.st4{fill:url(#SVGID_5_);}
	.st5{fill:url(#SVGID_6_);}
	.st6{fill:url(#SVGID_7_);}
	.st7{fill:url(#SVGID_8_);}
	.st8{fill:url(#SVGID_9_);}
	.st9{fill:url(#SVGID_10_);}
	.st10{fill:url(#SVGID_11_);}
	.st11{fill:url(#SVGID_12_);}
	.st12{fill:url(#SVGID_13_);}
	.st13{fill:url(#SVGID_14_);}
	.st14{fill:url(#SVGID_15_);}
	.st15{fill:url(#SVGID_16_);}
	.st16{fill:url(#SVGID_17_);}
	.st17{fill:url(#SVGID_18_);}
	.st18{fill:url(#SVGID_19_);}
</style>
<path d="M362.99,272.89h20.03v91.08h-20.03V272.89z"/>
<path d="M391.06,298.02h17.22v9.19h0.38c4.59-7.4,12.5-10.97,20.16-10.97c19.26,0,24.11,10.84,24.11,27.17v40.57h-18.11v-37.25
	c0-10.84-3.19-16.2-11.61-16.2c-9.82,0-14.03,5.49-14.03,18.88v34.57h-18.11V298.02z"/>
<path d="M503.58,320.59c-1.12-7.21-5.72-11.06-13.05-11.06c-11.31,0-15.04,11.43-15.04,20.88c0,9.2,3.6,20.26,14.67,20.26
	c8.2,0,12.93-5.22,14.04-13.05h17.03c-2.24,17.03-14.04,26.35-30.95,26.35c-19.39,0-32.44-13.67-32.44-32.94
	c0-20.01,11.93-34.8,32.81-34.8c15.16,0,29.08,7.95,30.2,24.36H503.58z"/>
<g>
	<path d="M537.76,363.97h-12.01c-0.25,0-0.46-0.2-0.46-0.46V351.5c0-0.25,0.2-0.46,0.46-0.46h12.01c0.25,0,0.46,0.2,0.46,0.46v12.01
		C538.22,363.77,538.01,363.97,537.76,363.97z M526.49,362.77h10.52v-10.52h-10.52V362.77z"/>
</g>
<g>
	<path d="M362.99,380.32v-11.17h3.57c3.47,0,5.65,2.53,5.65,5.59c0,3.1-2.18,5.58-5.65,5.58H362.99z M371.2,374.74
		c0-2.61-1.67-4.72-4.64-4.72h-2.61v9.43h2.61C369.51,379.45,371.2,377.35,371.2,374.74z"/>
	<path d="M383.96,380.32v-11.17h0.95v11.17H383.96z"/>
	<path d="M396.65,374.74c0-3.45,2.51-5.78,5.66-5.78c1.84,0,3.18,0.74,4.2,1.91l-0.72,0.52c-0.79-0.94-2.06-1.56-3.48-1.56
		c-2.61,0-4.66,1.99-4.66,4.91c0,2.88,2.04,4.92,4.66,4.92c1.49,0,2.68-0.74,3.28-1.36v-2.68h-4.22v-0.85h5.18v3.9
		c-0.99,1.11-2.48,1.86-4.24,1.86C399.16,380.53,396.65,378.19,396.65,374.74z"/>
	<path d="M418.35,380.32v-11.17h0.95v11.17H418.35z"/>
	<path d="M434.31,380.32v-10.3h-3.65v-0.87h8.27v0.87h-3.65v10.3H434.31z"/>
	<path d="M457.22,380.32l-1.11-2.75h-5.91l-1.11,2.75h-1.1l4.57-11.17h1.19l4.57,11.17H457.22z M453.17,370.17l-2.65,6.53h5.28
		L453.17,370.17z"/>
	<path d="M469.11,380.32v-11.17h0.97v10.3h5.41v0.87H469.11z"/>
</g>
<g>
	<linearGradient id="SVGID_1_" gradientUnits="userSpaceOnUse" x1="299.0405" y1="223.0791" x2="372.4935" y2="296.5321">
		<stop  offset="0" style="stop-color:#823F98"/>
		<stop  offset="0.5" style="stop-color:#446BAD"/>
		<stop  offset="0.9948" style="stop-color:#43B7B7"/>
	</linearGradient>
	<path class="st0" d="M309.16,229.12h-1.38l1.78-1.78c0.51-0.51,0.51-1.33,0-1.84c-0.51-0.51-1.33-0.51-1.84,0l-3.99,3.99
		c-0.12,0.12-0.22,0.26-0.28,0.42c-0.07,0.16-0.1,0.33-0.1,0.5v4.52c0,0.72,0.58,1.3,1.3,1.3c0.72,0,1.3-0.58,1.3-1.3v-3.22h3.22
		c0.72,0,1.3-0.58,1.3-1.3S309.88,229.12,309.16,229.12z"/>
	<linearGradient id="SVGID_2_" gradientUnits="userSpaceOnUse" x1="320.2968" y1="211.6594" x2="434.2663" y2="325.6289">
		<stop  offset="0" style="stop-color:#823F98"/>
		<stop  offset="0.5" style="stop-color:#446BAD"/>
		<stop  offset="0.9948" style="stop-color:#43B7B7"/>
	</linearGradient>
	<path class="st1" d="M336.02,234.93c0,0.72,0.58,1.3,1.3,1.3c0.72,0,1.3-0.58,1.3-1.3v-3.98l3.61-3.61c0.51-0.51,0.51-1.33,0-1.84
		c-0.51-0.51-1.33-0.51-1.84,0l-3.61,3.61h-3.98c-0.72,0-1.3,0.58-1.3,1.3s0.58,1.3,1.3,1.3h3.22V234.93z"/>
	<linearGradient id="SVGID_3_" gradientUnits="userSpaceOnUse" x1="282.3732" y1="249.7722" x2="379.6573" y2="347.0563">
		<stop  offset="0" style="stop-color:#823F98"/>
		<stop  offset="0.5" style="stop-color:#446BAD"/>
		<stop  offset="0.9948" style="stop-color:#43B7B7"/>
	</linearGradient>
	<path class="st2" d="M337.32,298.77c-0.72,0-1.3,0.58-1.3,1.3v9.3c0,0.72,0.58,1.3,1.3,1.3c0.72,0,1.3-0.58,1.3-1.3v-9.3
		C338.62,299.35,338.04,298.77,337.32,298.77z"/>
	<linearGradient id="SVGID_4_" gradientUnits="userSpaceOnUse" x1="272.3236" y1="258.3311" x2="369.6046" y2="355.612">
		<stop  offset="0" style="stop-color:#823F98"/>
		<stop  offset="0.5" style="stop-color:#446BAD"/>
		<stop  offset="0.9948" style="stop-color:#43B7B7"/>
	</linearGradient>
	<path class="st3" d="M337.32,317.37c-0.72,0-1.3,0.58-1.3,1.3v9.3c0,0.72,0.58,1.3,1.3,1.3c0.72,0,1.3-0.58,1.3-1.3v-9.3
		C338.62,317.96,338.04,317.37,337.32,317.37z"/>
	<linearGradient id="SVGID_5_" gradientUnits="userSpaceOnUse" x1="292.425" y1="241.2151" x2="389.7092" y2="338.4992">
		<stop  offset="0" style="stop-color:#823F98"/>
		<stop  offset="0.5" style="stop-color:#446BAD"/>
		<stop  offset="0.9948" style="stop-color:#43B7B7"/>
	</linearGradient>
	<path class="st4" d="M337.32,280.16c-0.72,0-1.3,0.58-1.3,1.3v9.3c0,0.72,0.58,1.3,1.3,1.3c0.72,0,1.3-0.58,1.3-1.3v-9.3
		C338.62,280.74,338.04,280.16,337.32,280.16z"/>
	<linearGradient id="SVGID_6_" gradientUnits="userSpaceOnUse" x1="302.4766" y1="232.658" x2="399.7611" y2="329.9425">
		<stop  offset="0" style="stop-color:#823F98"/>
		<stop  offset="0.5" style="stop-color:#446BAD"/>
		<stop  offset="0.9948" style="stop-color:#43B7B7"/>
	</linearGradient>
	<path class="st5" d="M337.32,261.55c-0.72,0-1.3,0.58-1.3,1.3v9.3c0,0.72,0.58,1.3,1.3,1.3c0.72,0,1.3-0.58,1.3-1.3v-9.3
		C338.62,262.13,338.04,261.55,337.32,261.55z"/>
	<linearGradient id="SVGID_7_" gradientUnits="userSpaceOnUse" x1="262.2747" y1="266.8911" x2="359.5524" y2="364.1688">
		<stop  offset="0" style="stop-color:#823F98"/>
		<stop  offset="0.5" style="stop-color:#446BAD"/>
		<stop  offset="0.9948" style="stop-color:#43B7B7"/>
	</linearGradient>
	<path class="st6" d="M338.62,337.28c0-0.72-0.58-1.3-1.3-1.3c-0.72,0-1.3,0.58-1.3,1.3v9.3c0,0.72,0.58,1.3,1.3,1.3
		c0.72,0,1.3-0.58,1.3-1.3V337.28z"/>
	<linearGradient id="SVGID_8_" gradientUnits="userSpaceOnUse" x1="312.5285" y1="224.1012" x2="409.8126" y2="321.3853">
		<stop  offset="0" style="stop-color:#823F98"/>
		<stop  offset="0.5" style="stop-color:#446BAD"/>
		<stop  offset="0.9948" style="stop-color:#43B7B7"/>
	</linearGradient>
	<path class="st7" d="M337.32,242.94c-0.72,0-1.3,0.58-1.3,1.3v9.3c0,0.72,0.58,1.3,1.3,1.3c0.72,0,1.3-0.58,1.3-1.3v-9.3
		C338.62,243.52,338.04,242.94,337.32,242.94z"/>
	<linearGradient id="SVGID_9_" gradientUnits="userSpaceOnUse" x1="124.526" y1="182.5635" x2="331.1943" y2="389.2318">
		<stop  offset="0" style="stop-color:#823F98"/>
		<stop  offset="0.5" style="stop-color:#446BAD"/>
		<stop  offset="0.9948" style="stop-color:#43B7B7"/>
	</linearGradient>
	<path class="st8" d="M324.92,377.72h-7.88c-0.72,0-1.3,0.58-1.3,1.3c0,0.72,0.58,1.3,1.3,1.3h7.88c0.72,0,1.3-0.58,1.3-1.3
		C326.22,378.3,325.64,377.72,324.92,377.72z"/>
	<linearGradient id="SVGID_10_" gradientUnits="userSpaceOnUse" x1="184.3061" y1="254.6879" x2="318.0065" y2="388.3884">
		<stop  offset="0" style="stop-color:#823F98"/>
		<stop  offset="0.5" style="stop-color:#446BAD"/>
		<stop  offset="0.9948" style="stop-color:#43B7B7"/>
	</linearGradient>
	<path class="st9" d="M309.16,377.72h-1.38l1.78-1.78c0.51-0.51,0.51-1.33,0-1.84c-0.51-0.51-1.33-0.51-1.84,0l-1.78,1.78v-1.38
		c0-0.72-0.58-1.3-1.3-1.3c-0.72,0-1.3,0.58-1.3,1.3v4.52c0,0.17,0.03,0.34,0.1,0.5c0.07,0.16,0.16,0.3,0.28,0.42c0,0,0,0,0,0
		c0,0,0.01,0.01,0.01,0.01c0.12,0.11,0.25,0.21,0.41,0.27c0.16,0.07,0.33,0.1,0.5,0.1h4.52c0.72,0,1.3-0.58,1.3-1.3
		C310.46,378.3,309.88,377.72,309.16,377.72z"/>
	<linearGradient id="SVGID_11_" gradientUnits="userSpaceOnUse" x1="254.9037" y1="254.9777" x2="352.1879" y2="352.2618">
		<stop  offset="0" style="stop-color:#823F98"/>
		<stop  offset="0.5" style="stop-color:#446BAD"/>
		<stop  offset="0.9948" style="stop-color:#43B7B7"/>
	</linearGradient>
	<path class="st10" d="M304.64,310.67c0.72,0,1.3-0.58,1.3-1.3v-9.3c0-0.72-0.58-1.3-1.3-1.3c-0.72,0-1.3,0.58-1.3,1.3v9.3
		C303.34,310.09,303.92,310.67,304.64,310.67z"/>
	<linearGradient id="SVGID_12_" gradientUnits="userSpaceOnUse" x1="264.9553" y1="246.4208" x2="362.2394" y2="343.705">
		<stop  offset="0" style="stop-color:#823F98"/>
		<stop  offset="0.5" style="stop-color:#446BAD"/>
		<stop  offset="0.9948" style="stop-color:#43B7B7"/>
	</linearGradient>
	<path class="st11" d="M304.64,292.06c0.72,0,1.3-0.58,1.3-1.3v-9.3c0-0.72-0.58-1.3-1.3-1.3c-0.72,0-1.3,0.58-1.3,1.3v9.3
		C303.34,291.48,303.92,292.06,304.64,292.06z"/>
	<linearGradient id="SVGID_13_" gradientUnits="userSpaceOnUse" x1="275.0071" y1="237.8637" x2="372.2913" y2="335.1479">
		<stop  offset="0" style="stop-color:#823F98"/>
		<stop  offset="0.5" style="stop-color:#446BAD"/>
		<stop  offset="0.9948" style="stop-color:#43B7B7"/>
	</linearGradient>
	<path class="st12" d="M304.64,273.45c0.72,0,1.3-0.58,1.3-1.3v-9.3c0-0.72-0.58-1.3-1.3-1.3c-0.72,0-1.3,0.58-1.3,1.3v9.3
		C303.34,272.87,303.92,273.45,304.64,273.45z"/>
	<linearGradient id="SVGID_14_" gradientUnits="userSpaceOnUse" x1="285.0588" y1="229.3067" x2="382.3433" y2="326.5911">
		<stop  offset="0" style="stop-color:#823F98"/>
		<stop  offset="0.5" style="stop-color:#446BAD"/>
		<stop  offset="0.9948" style="stop-color:#43B7B7"/>
	</linearGradient>
	<path class="st13" d="M304.64,254.84c0.72,0,1.3-0.58,1.3-1.3v-9.3c0-0.72-0.58-1.3-1.3-1.3c-0.72,0-1.3,0.58-1.3,1.3v9.3
		C303.34,254.26,303.92,254.84,304.64,254.84z"/>
	<linearGradient id="SVGID_15_" gradientUnits="userSpaceOnUse" x1="224.7537" y1="280.654" x2="322.0314" y2="377.9317">
		<stop  offset="0" style="stop-color:#823F98"/>
		<stop  offset="0.5" style="stop-color:#446BAD"/>
		<stop  offset="0.9948" style="stop-color:#43B7B7"/>
	</linearGradient>
	<path class="st14" d="M304.64,366.49c0.72,0,1.3-0.58,1.3-1.3v-9.3c0-0.72-0.58-1.3-1.3-1.3c-0.72,0-1.3,0.58-1.3,1.3v9.3
		C303.34,365.91,303.92,366.49,304.64,366.49z"/>
	<linearGradient id="SVGID_16_" gradientUnits="userSpaceOnUse" x1="234.8049" y1="272.0962" x2="332.0826" y2="369.3739">
		<stop  offset="0" style="stop-color:#823F98"/>
		<stop  offset="0.5" style="stop-color:#446BAD"/>
		<stop  offset="0.9948" style="stop-color:#43B7B7"/>
	</linearGradient>
	<path class="st15" d="M304.64,347.88c0.72,0,1.3-0.58,1.3-1.3v-9.3c0-0.72-0.58-1.3-1.3-1.3c-0.72,0-1.3,0.58-1.3,1.3v9.3
		C303.34,347.3,303.92,347.88,304.64,347.88z"/>
	<linearGradient id="SVGID_17_" gradientUnits="userSpaceOnUse" x1="244.8537" y1="263.5363" x2="342.1349" y2="360.8176">
		<stop  offset="0" style="stop-color:#823F98"/>
		<stop  offset="0.5" style="stop-color:#446BAD"/>
		<stop  offset="0.9948" style="stop-color:#43B7B7"/>
	</linearGradient>
	<path class="st16" d="M304.64,329.28c0.72,0,1.3-0.58,1.3-1.3v-9.3c0-0.72-0.58-1.3-1.3-1.3c-0.72,0-1.3,0.58-1.3,1.3v9.3
		C303.34,328.69,303.92,329.28,304.64,329.28z"/>
	<linearGradient id="SVGID_18_" gradientUnits="userSpaceOnUse" x1="284.1843" y1="243.596" x2="384.0139" y2="343.4257">
		<stop  offset="0" style="stop-color:#823F98"/>
		<stop  offset="0.5" style="stop-color:#446BAD"/>
		<stop  offset="0.9948" style="stop-color:#43B7B7"/>
	</linearGradient>
	<path class="st17" d="M354.95,214.08c0-0.17-0.03-0.34-0.1-0.5c-0.13-0.32-0.39-0.57-0.7-0.7c-0.16-0.06-0.32-0.1-0.48-0.1
		c0,0-0.01,0-0.01,0h-32.68c0,0,0,0,0,0c-0.17,0-0.34,0.03-0.5,0.1c-0.16,0.07-0.3,0.16-0.42,0.28l-8.17,8.17l-0.18,0.18
		c-0.51,0.51-0.51,1.33,0,1.84c0.25,0.25,0.59,0.38,0.92,0.38s0.67-0.13,0.92-0.38l0.18-0.18l5.95-5.95v11.9h-2.64
		c-0.72,0-1.3,0.58-1.3,1.3s0.58,1.3,1.3,1.3h2.64v130.43l-7.79,7.79c0,0,0,0,0,0c0,0,0,0,0,0l-0.18,0.18
		c-0.51,0.51-0.51,1.33,0,1.84c0.25,0.25,0.59,0.38,0.92,0.38c0.33,0,0.67-0.13,0.92-0.38l0.18-0.18c0,0,0,0,0,0l7.79-7.79h14.5
		v1.22c0,0.72,0.58,1.3,1.3,1.3c0.72,0,1.3-0.58,1.3-1.3v-1.22h11.9l-5.95,5.95c0,0,0,0,0,0c0,0,0,0,0,0l-0.18,0.18
		c-0.51,0.51-0.51,1.33,0,1.84c0.25,0.25,0.59,0.38,0.92,0.38c0.33,0,0.67-0.13,0.92-0.38l0.18-0.18c0,0,0,0,0,0l8.17-8.17
		c0,0,0,0,0,0c0.12-0.12,0.21-0.26,0.28-0.42c0.07-0.16,0.1-0.33,0.1-0.5V214.08z M337.32,354.59c-0.72,0-1.3,0.58-1.3,1.3v5.49
		h-13.74V231.71h2.64c0.72,0,1.3-0.58,1.3-1.3s-0.58-1.3-1.3-1.3h-2.64v-13.74h28.24l-5.95,5.95l-0.18,0.18
		c-0.51,0.51-0.51,1.33,0,1.84c0.25,0.25,0.59,0.38,0.92,0.38c0.33,0,0.67-0.13,0.92-0.38l0.18-0.18l5.95-5.95v144.17h-13.74v-5.49
		C338.62,355.17,338.04,354.59,337.32,354.59z"/>
	<linearGradient id="SVGID_19_" gradientUnits="userSpaceOnUse" x1="238.5575" y1="278.5227" x2="340.6508" y2="380.616">
		<stop  offset="0" style="stop-color:#823F98"/>
		<stop  offset="0.5" style="stop-color:#446BAD"/>
		<stop  offset="0.9948" style="stop-color:#43B7B7"/>
	</linearGradient>
	<path class="st18" d="M340.39,374.1l-1.78,1.78v-1.38c0-0.72-0.58-1.3-1.3-1.3c-0.72,0-1.3,0.58-1.3,1.3v3.22h-3.22
		c-0.72,0-1.3,0.58-1.3,1.3c0,0.72,0.58,1.3,1.3,1.3h4.52c0.17,0,0.34-0.03,0.5-0.1c0.15-0.06,0.29-0.16,0.41-0.27
		c0,0,0.01,0,0.01-0.01l3.99-3.99c0.51-0.51,0.51-1.33,0-1.84C341.72,373.6,340.9,373.6,340.39,374.1z"/>
</g>
</svg>
